:SAMPLES-PER-SECOND 30
:FRAME-RANGE 1-3549
:FULLY-SPECIFIED
:DEGREES
2773
root  62.1641 38.3104 19.6526 -2.01929 22.5359 -1.65515
RightUpLeg  -18.639 0.642845 2.84997
RightLeg  -3.73887 -25.033 6.86143
RightFoot  -1.69082 -1.27643 14.9052
RightToes  -1.11029e-010 1.2921e-014 -6.02303e-014
Spine  5.31441 -2.90384 -5.87143
Spine1  0.574362 -3.00121 -0.266039
HEad  3.30319 -8.86546 0.945925
LeftShoulder1  1.80585 -1.10868 -33.109
LeftArm  13.2412 2.66903 -43.9565
LeftForeArm  25.7763 -59.3395 -16.7905
LeftHand  0.466576 -0.550254 -9.10375
RightShoulder  4.90707 5.56558 47.4102
RightArm  21.3775 -5.03805 14.0928
RightForeArm  17.8402 3.9256 16.9121
RightHand  0.580855 5.11777 6.09443
LeftUpLeg  14.8398 7.73101 -3.11613
LeftLeg  9.05744 0.200579 -1.37103
LeftFoot  -20.5876 0.333795 2.59824
LeftToes  -1.9349e-011 -1.19469e-011 -2.02219e-012
2774
root  63.0869 37.9577 20.9493 -1.86932 23.4325 -0.942993
RightUpLeg  -18.8936 1.55623 3.92946
RightLeg  -1.56516 -24.6657 5.86896
RightFoot  -2.57364 -1.12096 14.3227
RightToes  -1.11029e-010 1.2921e-014 -6.02303e-014
Spine  4.85614 -2.59222 -4.56893
Spine1  0.704201 -2.58642 -0.835836
HEad  4.20714 -11.2409 0.261933
LeftShoulder1  1.71509 -0.920667 -32.7208
LeftArm  14.318 1.69291 -44.1437
LeftForeArm  22.3889 -53.0447 -13.15
LeftHand  0.383318 -0.916068 -6.99822
RightShoulder  5.67515 6.87137 47.9279
RightArm  10.7546 -2.59328 12.3785
RightForeArm  23.7879 -2.44292 17.1749
RightHand  0.504106 4.62836 5.53886
LeftUpLeg  17.0481 8.0924 -3.40029
LeftLeg  10.3937 -1.19441 -2.00362
LeftFoot  -21.6169 0.264408 1.49697
LeftToes  -1.9349e-011 -1.19469e-011 -2.02219e-012
2775
root  64.0859 37.7051 22.3286 -1.5473 24.644 -0.566895
RightUpLeg  -19.4897 -1.29754 6.38982
RightLeg  5.17279 -20.9666 2.96333
RightFoot  -0.7701 -1.05466 11.3086
RightToes  -1.11029e-010 1.2921e-014 -6.02303e-014
Spine  4.02191 -2.54554 -2.629
Spine1  0.768895 -2.51139 -1.09835
HEad  5.73685 -13.7552 -1.20978
LeftShoulder1  1.65824 -0.804089 -32.4493
LeftArm  17.0968 1.66499 -43.9702
LeftForeArm  17.7603 -44.7093 -9.85663
LeftHand  0.24878 -1.11102 -4.35711
RightShoulder  5.96423 7.44931 47.7054
RightArm  2.66216 -1.23302 11.2903
RightForeArm  26.9551 -6.14868 16.2289
RightHand  0.447865 4.30281 5.07586
LeftUpLeg  19.023 8.73246 -2.9681
LeftLeg  11.8855 -3.48973 -2.7815
LeftFoot  -21.4171 0.12106 -0.084814
LeftToes  -1.9349e-011 -1.19469e-011 -2.02219e-012
2776
root  65.0732 37.7466 23.7496 -1.85547 25.7194 -1.82227
RightUpLeg  -21.3158 -0.132217 8.9932
RightLeg  11.924 -21.2934 -0.8827
RightFoot  2.45423 0.769096 -6.20812
RightToes  -1.11029e-010 1.2921e-014 -6.02303e-014
Spine  3.50256 -2.21226 1.02263
Spine1  0.636214 -2.38694 -0.410909
HEad  7.44411 -15.9919 -3.65322
LeftShoulder1  1.62939 -0.708409 -32.637
LeftArm  23.3023 1.83405 -43.5264
LeftForeArm  10.1783 -34.5761 -7.15256
LeftHand  0.109683 -0.994463 -1.90747
RightShoulder  5.64191 7.03579 46.8861
RightArm  -1.34827 -0.849845 10.9411
RightForeArm  25.6244 -6.47597 15.7102
RightHand  0.355958 3.74474 4.26136
LeftUpLeg  20.8733 12.374 0.85059
LeftLeg  13.8717 -9.29797 -3.80357
LeftFoot  -19.0085 -0.0898659 -3.04126
LeftToes  -1.9349e-011 -1.19469e-011 -2.02219e-012
2777
root  66.0508 37.6426 25.2089 -2.4325 25.6506 -2.97302
RightUpLeg  -22.655 -2.12587 12.4196
RightLeg  19.9813 -16.7241 -6.73965
RightFoot  -0.0757811 0.665942 -6.74354
RightToes  -1.11029e-010 1.2921e-014 -6.02303e-014
Spine  3.56959 -1.88024 4.62938
Spine1  -0.428305 -1.68079 -1.06305
HEad  8.42956 -18.3051 -5.10502
LeftShoulder1  1.53141 -0.384921 -33.3267
LeftArm  34.4626 1.69562 -42.4306
LeftForeArm  -4.03686 -24.5571 -5.4569
LeftHand  0.0406145 -0.32066 -0.796603
RightShoulder  5.6555 6.99017 47.21
RightArm  -2.95088 -0.0607042 10.2528
RightForeArm  23.2137 -5.67969 15.6896
RightHand  0.333008 3.62319 4.03268
LeftUpLeg  19.8017 17.6689 5.88994
LeftLeg  23.3401 -15.9749 -7.10355
LeftFoot  -14.8625 -0.168127 -8.35116
LeftToes  -1.9349e-011 -1.19469e-011 -2.02219e-012
2778
root  66.8016 37.5043 26.469 -3.32611 26.1946 -3.7771
RightUpLeg  -22.3969 -1.69047 12.8557
RightLeg  25.5215 -17.0761 -8.90079
RightFoot  -3.52925 0.465576 -7.15285
RightToes  -1.11029e-010 1.2921e-014 -6.02303e-014
Spine  4.40366 -2.22346 6.35523
Spine1  -0.181037 -1.70838 -0.207637
HEad  8.41508 -20.2008 -5.22576
LeftShoulder1  1.49627 -0.354593 -32.7286
LeftArm  21.2029 2.23905 -40.6747
LeftForeArm  3.3901 -12.4306 -13.7515
LeftHand  0.0473607 0.832669 -1.33892
RightShoulder  6.20655 7.94545 47.4864
RightArm  -4.29085 0.557141 10.6937
RightForeArm  22.5276 -4.34901 15.4467
RightHand  0.365833 4.08834 4.20359
LeftUpLeg  14.3719 15.0419 7.56048
LeftLeg  37.0015 -15.4207 -11.8095
LeftFoot  -5.9062 0.923534 -18.5735
LeftToes  -1.9349e-011 -1.19469e-011 -2.02219e-012
2779
root  67.4187 37.2418 27.5288 -3.7403 28.5029 -5.66638
RightUpLeg  -23.2252 -3.2174 14.2975
RightLeg  30.0089 -17.4055 -10.8118
RightFoot  -7.20889 0.189406 -6.58698
RightToes  -1.11029e-010 1.2921e-014 -6.02303e-014
Spine  4.08739 -3.20226 8.15331
Spine1  1.19475 -2.52014 2.01624
HEad  8.12774 -23.2936 -4.29478
LeftShoulder1  1.65039 -0.830351 -32.0353
LeftArm  6.07643 3.30466 -37.8258
LeftForeArm  9.43615 -1.14647 -17.7967
LeftHand  0.0385968 2.44789 -2.10461
RightShoulder  6.46596 8.45837 47.3446
RightArm  -2.63556 1.16424 12.2638
RightForeArm  20.7348 -0.747086 15.4001
RightHand  0.412658 4.30021 4.65681
LeftUpLeg  4.62452 8.92864 8.57826
LeftLeg  51.7638 -13.1364 -16.8257
LeftFoot  6.33693 3.75786 -24.0957
LeftToes  -1.9349e-011 -1.19469e-011 -2.02219e-012
2780
root  68.0751 37.2082 28.6641 -4.10895 29.0162 -6.82837
RightUpLeg  -22.0089 -3.52393 15.1318
RightLeg  31.7744 -17.3289 -11.4981
RightFoot  -9.97125 -0.00485163 -5.21896
RightToes  -1.11029e-010 1.2921e-014 -6.02303e-014
Spine  4.34856 -3.25194 10.144
Spine1  1.54511 -2.17224 2.39163
HEad  8.54436 -27.3985 -2.93445
LeftShoulder1  1.70102 -1.02332 -31.5318
LeftArm  8.94654 4.90603 -34.7841
LeftForeArm  2.60671 2.59192 -19.1007
LeftHand  0.00606301 4.0615 -2.66744
RightShoulder  6.54898 8.35575 48.3809
RightArm  4.82226 1.86321 13.3143
RightForeArm  15.2998 5.26096 15.0775
RightHand  0.442753 4.47508 4.91567
LeftUpLeg  -3.14698 5.59088 9.81542
LeftLeg  61.4672 -9.82627 -18.3609
LeftFoot  7.08024 3.94106 -24.2466
LeftToes  -1.9349e-011 -1.19469e-011 -2.02219e-012
2781
root  68.8125 37.4638 29.9909 -4.10156 27.0732 -6.11194
RightUpLeg  -18.3301 -1.52781 14.3717
RightLeg  31.2611 -17.4264 -11.1733
RightFoot  -12.0744 -0.106488 -3.89273
RightToes  -1.11029e-010 1.2921e-014 -6.02303e-014
Spine  5.26481 -2.50907 10.7145
Spine1  0.918808 -1.02173 1.36225
HEad  8.60683 -30.9718 -1.55463
LeftShoulder1  1.56721 -0.729098 -30.9751
LeftArm  14.0886 8.54093 -31.1206
LeftForeArm  -1.46887 0.975503 -19.5346
LeftHand  0.00679462 4.35869 -3.83341
RightShoulder  6.92913 8.71698 49.6759
RightArm  14.917 2.05753 14.7846
RightForeArm  8.74716 11.645 12.9227
RightHand  0.445342 4.75915 4.78911
LeftUpLeg  -8.63184 4.99652 9.96555
LeftLeg  65.458 -6.81799 -15.3471
LeftFoot  3.59218 2.67053 -20.3554
LeftToes  -1.9349e-011 -1.19469e-011 -2.02219e-012
2782
root  69.5718 37.8106 31.3416 -3.29297 24.5943 -4.49561
RightUpLeg  -14.5855 0.129422 12.7537
RightLeg  29.6065 -17.0271 -10.0188
RightFoot  -13.665 -0.15294 -2.98645
RightToes  -1.11029e-010 1.2921e-014 -6.02303e-014
Spine  5.41682 -1.78081 10.2392
Spine1  0.570035 -0.178983 0.333189
HEad  8.38258 -33.4333 -0.264951
LeftShoulder1  1.40196 -0.343439 -30.3806
LeftArm  17.0177 13.7953 -27.2597
LeftForeArm  -2.38869 -1.49221 -19.2482
LeftHand  0.0571514 3.64992 -5.43373
RightShoulder  7.49928 9.49102 50.549
RightArm  26.8741 1.84917 16.6688
RightForeArm  0.100958 18.1701 8.60606
RightHand  0.424494 4.86129 4.49945
LeftUpLeg  -13.6701 4.66217 9.13428
LeftLeg  64.9194 -4.41848 -9.61584
LeftFoot  2.12334 1.89105 -16.0418
LeftToes  -1.9349e-011 -1.19469e-011 -2.02219e-012
2783
root  70.3432 38.1761 32.6904 -2.0672 21.9584 -2.73267
RightUpLeg  -11.0452 0.192009 10.7207
RightLeg  26.9017 -14.9198 -7.85997
RightFoot  -14.9191 -0.186016 -2.72652
RightToes  -1.11029e-010 1.2921e-014 -6.02303e-014
Spine  4.96995 -1.01919 9.4166
Spine1  0.385617 0.450556 -0.586511
HEad  7.78915 -34.9617 0.587042
LeftShoulder1  1.29369 -0.0954134 -29.8736
LeftArm  18.8611 19.1615 -24.078
LeftForeArm  -2.50402 -4.75142 -18.3398
LeftHand  0.113549 2.88888 -6.20375
RightShoulder  7.76281 9.92309 50.6382
RightArm  32.3535 1.45899 18.6679
RightForeArm  -2.54926 23.7933 5.21647
RightHand  0.474366 4.78614 5.10465
LeftUpLeg  -18.2077 3.85569 8.08219
LeftLeg  60.6312 -2.25287 -3.78595
LeftFoot  0.702858 1.30757 -12.3982
LeftToes  -1.9349e-011 -1.19469e-011 -2.02219e-012
2784
root  71.0799 38.5122 34.0091 -1.00031 19.0069 -1.22131
RightUpLeg  -7.39793 -0.0923695 8.77588
RightLeg  23.5683 -11.894 -5.7557
RightFoot  -15.7155 -0.211442 -2.75443
RightToes  -1.11029e-010 1.2921e-014 -6.02303e-014
Spine  4.58032 -0.202604 8.59643
Spine1  0.282466 1.08881 -1.57155
HEad  6.74995 -36.0359 1.38891
LeftShoulder1  1.21526 0.0603744 -29.2091
LeftArm  20.3899 23.8736 -21.9965
LeftForeArm  -4.42255 -7.3013 -17.4155
LeftHand  0.141145 2.52438 -6.44621
RightShoulder  7.80203 10.0134 50.5548
RightArm  29.2941 1.01524 19.8522
RightForeArm  3.51385 29.3998 6.20075
RightHand  0.514996 4.69282 5.62411
LeftUpLeg  -21.3285 3.12519 7.63177
LeftLeg  52.8227 -0.817721 -0.706704
LeftFoot  -0.718599 0.983474 -10.5116
LeftToes  -1.9349e-011 -1.19469e-011 -2.02219e-012
